<svg width="26" height="27" viewBox="0 0 26 27" fill="none" xmlns="http://www.w3.org/2000/svg">
<path d="M24.8848 3.375C25.2738 3.375 25.5889 3.68905 25.5889 4.07812C25.5888 4.46713 25.2738 4.78125 24.8848 4.78125H10.8516C10.4625 4.78125 10.1485 4.46713 10.1484 4.07812C10.1484 3.68905 10.4625 3.375 10.8516 3.375H24.8848Z" fill="black" stroke="black" stroke-width="0.2"/>
<path d="M4.30664 3.375C4.69572 3.375 5.01074 3.68905 5.01074 4.07812C5.01065 4.46713 4.69566 4.78125 4.30664 4.78125H0.803711C0.414688 4.78125 0.100678 4.46713 0.100586 4.07812C0.100586 3.68905 0.414632 3.375 0.803711 3.375H4.30664Z" fill="black" stroke="black" stroke-width="0.2"/>
<path d="M7.58545 0.100586C9.77639 0.100821 11.5581 1.88325 11.5581 4.07812C11.5538 6.26862 9.77641 8.05055 7.58545 8.05078C5.39057 8.05078 3.60814 6.26906 3.60791 4.07812C3.60791 1.88303 5.39036 0.100586 7.58545 0.100586ZM7.58545 1.50684C6.16852 1.50684 5.01416 2.66119 5.01416 4.07812C5.0144 5.49466 6.16846 6.64453 7.58545 6.64453C9.00204 6.6443 10.1516 5.49472 10.1519 4.07812C10.148 2.66078 8.99782 1.50707 7.58545 1.50684Z" fill="black" stroke="black" stroke-width="0.2"/>
<path d="M24.8853 12.4971C25.2743 12.4971 25.5884 12.8111 25.5884 13.2002C25.5883 13.5892 25.2743 13.9033 24.8853 13.9033H19.7007C19.3117 13.9033 18.9977 13.5892 18.9976 13.2002C18.9976 12.8111 19.3116 12.4971 19.7007 12.4971H24.8853Z" fill="black" stroke="black" stroke-width="0.2"/>
<path d="M13.1562 12.4971C13.5452 12.4972 13.8594 12.8112 13.8594 13.2002C13.8593 13.5891 13.5452 13.9032 13.1562 13.9033H0.803711C0.414688 13.9033 0.100678 13.5892 0.100586 13.2002C0.100586 12.8111 0.414632 12.4971 0.803711 12.4971H13.1562Z" fill="black" stroke="black" stroke-width="0.2"/>
<path d="M16.4346 9.22266C18.6255 9.22289 20.4072 11.0053 20.4072 13.2002C20.403 15.3908 18.6214 17.1726 16.4346 17.1729C14.2397 17.1729 12.4573 15.3911 12.457 13.2002C12.457 11.0051 14.2395 9.22266 16.4346 9.22266ZM16.4346 10.6289C15.0176 10.6289 13.8633 11.7833 13.8633 13.2002C13.8635 14.6167 15.0176 15.7666 16.4346 15.7666C17.8512 15.7664 19.0007 14.6168 19.001 13.2002C18.9971 11.7828 17.8469 10.6291 16.4346 10.6289Z" fill="black" stroke="black" stroke-width="0.2"/>
<path d="M24.8853 21.6201C25.2743 21.6202 25.5884 21.9342 25.5884 22.3232C25.5883 22.7122 25.2742 23.0263 24.8853 23.0264H12.4604C12.0714 23.0264 11.7574 22.7122 11.7573 22.3232C11.7573 21.9342 12.0714 21.6201 12.4604 21.6201H24.8853Z" fill="black" stroke="black" stroke-width="0.2"/>
<path d="M5.91602 21.6201C6.30503 21.6202 6.61914 21.9342 6.61914 22.3232C6.61905 22.7122 6.30498 23.0263 5.91602 23.0264H0.803711C0.414688 23.0264 0.100678 22.7122 0.100586 22.3232C0.100586 21.9342 0.414632 21.6201 0.803711 21.6201H5.91602Z" fill="black" stroke="black" stroke-width="0.2"/>
<path d="M9.19434 18.3496C11.3851 18.3498 13.1668 20.1315 13.167 22.3223V22.3232C13.1627 24.5176 11.3853 26.2996 9.19434 26.2998C6.99918 26.2998 5.2168 24.5133 5.2168 22.3223C5.21703 20.1313 6.99945 18.3496 9.19434 18.3496ZM9.19434 19.7559C7.77735 19.7559 6.62328 20.9057 6.62305 22.3223C6.62305 23.7392 7.7774 24.8936 9.19434 24.8936C10.6107 24.8933 11.7604 23.74 11.7607 22.3232L11.7471 22.0605C11.6124 20.7666 10.5186 19.7561 9.19434 19.7559Z" fill="black" stroke="black" stroke-width="0.2"/>
</svg>
