<svg width="76" height="83" viewBox="0 0 76 83" fill="none" xmlns="http://www.w3.org/2000/svg">
<mask id="path-1-inside-1_80_663" fill="white">
<path d="M46.0434 7.25766C60.1256 10.7687 71.4564 15.3643 73.6019 18.2512L74.1846 18.3965L58.2178 82.436L3.71933e-05 67.9207L15.9669 3.88118L16.5496 4.02648C19.7993 2.48473 31.9613 3.74658 46.0434 7.25766Z"/>
</mask>
<path d="M46.0434 7.25766C60.1256 10.7687 71.4564 15.3643 73.6019 18.2512L74.1846 18.3965L58.2178 82.436L3.71933e-05 67.9207L15.9669 3.88118L16.5496 4.02648C19.7993 2.48473 31.9613 3.74658 46.0434 7.25766Z" fill="#FCE8D3"/>
<path d="M73.6019 18.2512L72.7993 18.8477L73.0127 19.1349L73.36 19.2215L73.6019 18.2512ZM74.1846 18.3965L75.1549 18.6384L75.3968 17.6681L74.4265 17.4262L74.1846 18.3965ZM58.2178 82.436L57.9759 83.4063L58.9462 83.6482L59.1881 82.6779L58.2178 82.436ZM3.71933e-05 67.9207L-0.970259 67.6788L-1.21218 68.6491L-0.241885 68.891L3.71933e-05 67.9207ZM15.9669 3.88118L16.2088 2.91089L15.2385 2.66897L14.9966 3.63926L15.9669 3.88118ZM16.5496 4.02648L16.3077 4.99677L16.6549 5.08335L16.9783 4.92995L16.5496 4.02648ZM46.0434 7.25766L45.8015 8.22795C52.8084 9.97498 59.1168 11.9885 63.9268 13.9167C66.3332 14.8813 68.3476 15.8178 69.8805 16.6807C71.4496 17.564 72.3975 18.3071 72.7993 18.8477L73.6019 18.2512L74.4045 17.6547C73.7335 16.7519 72.4605 15.8379 70.8616 14.9379C69.2265 14.0174 67.1257 13.0443 64.671 12.0603C59.7587 10.0912 53.3606 8.05141 46.2854 6.28736L46.0434 7.25766ZM73.6019 18.2512L73.36 19.2215L73.9427 19.3668L74.1846 18.3965L74.4265 17.4262L73.8438 17.2809L73.6019 18.2512ZM74.1846 18.3965L73.2143 18.1546L57.2475 82.1941L58.2178 82.436L59.1881 82.6779L75.1549 18.6384L74.1846 18.3965ZM58.2178 82.436L58.4597 81.4657L0.241959 66.9504L3.71933e-05 67.9207L-0.241885 68.891L57.9759 83.4063L58.2178 82.436ZM3.71933e-05 67.9207L0.970333 68.1626L16.9372 4.1231L15.9669 3.88118L14.9966 3.63926L-0.970259 67.6788L3.71933e-05 67.9207ZM15.9669 3.88118L15.725 4.85148L16.3077 4.99677L16.5496 4.02648L16.7916 3.05618L16.2088 2.91089L15.9669 3.88118ZM16.5496 4.02648L16.9783 4.92995C17.5868 4.64124 18.7726 4.43013 20.5727 4.38689C22.3313 4.34465 24.5495 4.46347 27.1271 4.74149C32.2794 5.29722 38.7946 6.48093 45.8015 8.22795L46.0434 7.25766L46.2854 6.28736C39.2101 4.52331 32.6033 3.32056 27.3416 2.75302C24.7122 2.46942 22.4005 2.34241 20.5247 2.38747C18.6904 2.43153 17.1373 2.64084 16.121 3.123L16.5496 4.02648Z" fill="#504538" mask="url(#path-1-inside-1_80_663)"/>
<path d="M55.3043 77.5869L4.84896 65.007L11.1389 39.7793L34.1929 45.5273C37.1453 44.1001 40.4783 43.1471 43.3177 43.855C49.2264 45.3282 51.8931 46.5202 54.8898 45.6885L64.4974 40.7157L55.3043 77.5869Z" fill="#504538"/>
<rect width="12" height="12" rx="2" transform="matrix(0.970296 0.241922 0.241922 -0.970296 42.1707 60.562)" fill="#FCE8D3"/>
<rect width="12" height="12" rx="2" transform="matrix(0.970296 0.241922 0.241922 -0.970296 25.7917 67.8149)" fill="#FCE8D3"/>
</svg>
